# xmcd
#
# Track frame offsets:
#	180
#	11915
#	25005
#	38117
#	53880
#	71327
#
# Disc length: 1176 seconds
#
# Revision: 1
# Processed by: cddbd v1.4PL0 Copyright (c) Steve Scherf et al.
# Submitted via: audiograbber 1.80
#
DISCID=45049606
DTITLE=Kingsnakes - Belleville Cat
DYEAR=1900
DGENRE=
TTITLE0=Belleville Cat
TTITLE1=Loving Bound
TTITLE2=Shuffled Around
TTITLE3=Crawlin' On My Knees
TTITLE4=Gimme Some Hug
TTITLE5=I'm Coming Home
EXTD=
EXTT0=
EXTT1=
EXTT2=
EXTT3=
EXTT4=
EXTT5=
PLAYORDER=
